<?xml version="1.0" encoding="utf-8"?>
<!-- Generator: Adobe Illustrator 25.4.0, SVG Export Plug-In . SVG Version: 6.00 Build 0)  -->
<svg version="1.1" id="Capa_1" xmlns="http://www.w3.org/2000/svg" xmlns:xlink="http://www.w3.org/1999/xlink" x="0px" y="0px"
	 viewBox="0 0 331.6 383.6" style="enable-background:new 0 0 331.6 383.6;" xml:space="preserve">
<style type="text/css">
	.st0{fill:#FFFFFF;}
</style>
<path class="st0" d="M194.7,241.8c-4.2,0.1-8.3-0.6-12.3-2.1c-2.7-1-5.5-1.5-8.4-1.4c-2.9-0.1-5.7,0.4-8.4,1.4
	c-7.9,2.7-16.6,2.7-24.5,0c-2.7-1-5.5-1.5-8.4-1.4v6.8c4.2-0.1,8.3,0.6,12.2,2c5.4,1.9,11.3,1.9,16.7,0c7.9-2.7,16.6-2.7,24.5,0
	c2.7,1,5.5,1.5,8.4,1.4v-6.7H194.7z M219.1,249.4L219.1,249.4c0-1.5,1.1-2.8,2.6-3c26.4-1.9,46.8-23.8,46.9-50.3v-11.2h-9.4
	c-7.9,0-14.5,5.9-15.4,13.8c0,0.6,0,1.1-0.1,1.7c0,0.2,0,0.4-0.1,0.6c-1.3,10.7-9.7,19.1-20.4,20.6c-0.3,0.1-0.5,0.1-0.8,0.1H222
	c-0.4,0-0.8,0.1-1.1,0.1c-7.9,0.8-14,7.4-14,15.4v46.5h12.2L219.1,249.4L219.1,249.4z M194.7,221.7h-61.8v4.3
	c4.2-0.1,8.3,0.6,12.2,2c5.4,1.9,11.3,1.9,16.7,0c7.9-2.7,16.6-2.7,24.5,0c2.7,1,5.5,1.5,8.4,1.4L194.7,221.7L194.7,221.7z
	 M221,61.8c0.4,0,0.8,0,1.1,0.1h0.4c0.3,0,0.5,0,0.8,0.1c10.6,1.5,19,9.9,20.3,20.6c0,0.2,0.1,0.4,0.1,0.6c0.1,0.5,0.1,1.1,0.1,1.7
	c0.9,7.8,7.5,13.8,15.4,13.8h46.5V86.4l0,0v-3c-0.2-46-37.5-83.3-83.5-83.5H207v23.3c0,0.8,0.7,1.5,1.5,1.5h10.9
	c33.9,0.1,61.3,27.6,61.4,61.4v0.2h-9.3c-1.5,0-2.7-1.1-3-2.5c-1.9-26.4-23.8-46.8-50.3-46.9H207v9.4C207,54.4,213.1,61.1,221,61.8z
	 M46.8,97.1V86.3c0.1-33.9,27.5-61.3,61.4-61.4h0.2v9.3c0,1.5-1.1,2.7-2.5,3C79.6,39.1,59.1,61,59,87.4v11.2h9.4
	c7.9,0,14.5-5.9,15.4-13.8c0-0.6,0-1.1,0.1-1.7c0-0.2,0-0.4,0.1-0.5c1.3-10.7,9.7-19.1,20.4-20.6c0.3-0.1,0.5-0.1,0.8-0.1h0.4
	c0.4,0,0.8,0,1.1-0.1c7.9-0.8,14-7.4,14-15.4V0h-15.2C59.5,0.1,22.1,37.4,22,83.5v15.2h23.3C46.2,98.7,46.8,98,46.8,97.1z M139,20.6
	c-1.1-4.1,0-8.5,3-11.6c3.1-3,7.5-4.1,11.6-3c2.1-3.7,6-6,10.2-6.1h-30.9v30.9C133,26.7,135.3,22.7,139,20.6z M169.7,74.1v61.8h30.6
	L182.1,105l18.3-30.9H169.7z M174.1,6.1c4.1-1.1,8.5,0,11.6,3c3,3.1,4.1,7.4,3,11.6c3.7,2.1,6,6,6.1,10.3V0h-30.9
	C168.1,0.1,172,2.4,174.1,6.1z M231.6,135.9V84.8c0-5.9-4.8-10.7-10.8-10.8h-19.9l18.2,30.9l-18.2,30.9L231.6,135.9L231.6,135.9z
	 M194.7,260.7c-4.2,0.1-8.3-0.6-12.3-2c-2.7-1-5.5-1.5-8.4-1.4c-2.9-0.1-5.7,0.4-8.4,1.4c-7.9,2.7-16.6,2.7-24.5,0
	c-2.7-1-5.5-1.5-8.4-1.4v6.7c4.2-0.1,8.3,0.6,12.2,2c5.4,1.9,11.3,1.9,16.7,0c7.9-2.7,16.6-2.7,24.5,0c2.7,1,5.5,1.5,8.4,1.4v-6.7
	H194.7z M268.5,110.9v24.7h12.4v-24.7C280.9,110.9,268.5,110.9,268.5,110.9z M182.1,147.7v12.4h-12.4v12.4h24.7v-24.7L182.1,147.7
	L182.1,147.7z M194.5,172.4v12.4h12.4v-12.4H194.5z M231.6,160.1h-12.4v-12.4h-12.4v24.7h24.7L231.6,160.1L231.6,160.1z
	 M219.2,209.5v-12.4h12.4v-12.4h-24.7v24.7L219.2,209.5L219.2,209.5z M250.8,320.4c2.4-0.1,4.8,0.4,7,1.5c0.9,3.2,1.7,6.4,2.3,9.6
	c2.5,0.3,5,0.4,7.6,0.3c1.1-4.6,2-8.8,2.7-12.5l-1.2-2.1c-5.5-2.8-11.6-4.3-17.8-4.3c-6.9-0.2-13.7,2.4-18.7,7.3
	c-5.1,4.8-7.6,11.1-7.6,18.8c0,7.5,2.3,13.5,6.8,17.8c4.5,4.4,10.6,6.5,18.4,6.5c7.2,0,13.3-1.6,18.3-4.9l1-2.1
	c0-4.3-0.1-7.8-0.3-10.4c-2.7-0.3-5.4-0.4-8.1-0.3c-1.1,3.8-2,6.7-2.6,8.7c-1.4,0.8-3.7,1.2-6.8,1.2c-4.5,0-7.9-1.5-10.2-4.6
	c-2.4-3.1-3.5-7.3-3.5-12.7c0-6.8,1.7-12.1,5-16.1C244.7,320.9,247.4,320.4,250.8,320.4z M194.7,279.7c-4.2,0.1-8.3-0.6-12.3-2
	c-2.7-1-5.5-1.5-8.4-1.5c-2.9-0.1-5.7,0.4-8.4,1.4c-7.9,2.7-16.6,2.7-24.5,0c-2.7-1-5.5-1.5-8.4-1.4v7.4h61.8v-3.9H194.7z
	 M169.7,197.2h12.4v12.4h12.4v-24.7h-24.7L169.7,197.2L169.7,197.2z M305.7,200.1v-15.2h-23.3c-0.8,0-1.5,0.7-1.5,1.5v10.9
	c-0.1,33.9-27.6,61.3-61.5,61.4h-0.2v24.8h3C268.2,283.5,305.5,246.1,305.7,200.1z M132.9,30.9v30.9h61.8V30.9
	c-0.1,4.3-2.4,8.2-6.1,10.3c1.8,6.2-1.8,12.8-8.1,14.6c-2.1,0.6-4.4,0.6-6.5,0c-2.1,3.7-6,6-10.3,6.1c-4.3-0.1-8.2-2.4-10.3-6.1
	c-6.3,1.8-12.8-1.9-14.5-8.1c-0.6-2.1-0.6-4.3,0-6.4C135.3,39.1,133,35.2,132.9,30.9z M96.1,198.8c0,5.9,4.8,10.7,10.8,10.8H158
	v-20.9H96.1V198.8z M96.1,135.9h61.8v-12.4H96.1V135.9z M96.1,168h6.8v6.9h6.9v6.9h20.6V168h-6.9v6.9h-6.9v-13.8h20.6v6.9h6.9v6.9
	h6.9v6.9h6.9v-34H96.1V168z M170,30.9c0-3.4-2.8-6.2-6.2-6.2s-6.2,2.8-6.2,6.2s2.8,6.2,6.2,6.2C167.2,37.1,170,34.3,170,30.9z
	 M96.1,111.1h61.8V98.8H96.1V111.1z M96.1,84.8v1.6h61.8V74.1h-51.1C100.9,74.1,96.1,78.9,96.1,84.8z M243.8,110.9v61.8h61.8v-61.8
	h-12.4V148h-37.1v-37.1H243.8z M179.1,383.5h8.3v-2.4h-5.9v-2.4h4.8v-1.2h-4.8v-2.4h5.9v-2.4h-8.3V383.5z M185.9,347.9l17.2-0.4
	c1.1,3.2,2,6,2.8,8.5l-6.5,2l0.9,4.1h23.4l0.9-4.1l-5.4-1.9c-3.9-10-8.2-21.7-12.9-35.2c-1.3-3.8-2.2-6.4-2.5-7.6
	c-4.4,0-9.5,0.2-15.3,0.7l-1.9,6.9c-5.1,14.5-9.5,26.2-13.2,35.1l-5.3,2.1l0.9,4.1h20.2l1-4.1l-6.7-2.1
	C185,350.9,185.8,348.2,185.9,347.9z M187.9,341.2c2.3-7.8,4.3-14.3,6.1-19.6c2.2,6.1,4.6,12.8,7,19.9L187.9,341.2L187.9,341.2z
	 M196.9,372.8h-3.6v10.7h8.3v-2.4h-4.8v-8.3L196.9,372.8L196.9,372.8z M83.9,172.7v-61.8H53.5l12.4,15.4l-12.4,15.5l12.4,15.5
	l-12.4,15.5L83.9,172.7L83.9,172.7z M144.5,374.3c-0.5-0.5-1.2-0.9-1.8-1.1c-1.5-0.5-3.1-0.5-4.6,0c-0.7,0.3-1.3,0.6-1.9,1.1
	c-0.5,0.5-0.9,1.1-1.2,1.7c-0.6,1.4-0.6,3,0,4.3c0.3,0.7,0.7,1.2,1.2,1.7s1.2,0.9,1.9,1.1c0.7,0.3,1.5,0.4,2.3,0.4s1.6-0.1,2.3-0.4
	s1.3-0.6,1.8-1.1s0.9-1.1,1.2-1.7c0.6-1.4,0.6-3,0-4.4C145.4,375.4,145,374.8,144.5,374.3z M143,379.4c-0.1,0.4-0.3,0.7-0.6,1
	s-0.6,0.5-0.9,0.6c-0.4,0.1-0.7,0.2-1.1,0.2c-0.4,0-0.8-0.1-1.1-0.2s-0.6-0.3-0.9-0.6c-0.3-0.3-0.5-0.6-0.6-1
	c-0.3-0.8-0.3-1.7,0-2.5c0.1-0.3,0.3-0.7,0.6-0.9c0.3-0.3,0.6-0.5,0.9-0.6c0.7-0.3,1.5-0.3,2.2,0c0.3,0.1,0.6,0.3,0.9,0.6
	c0.3,0.3,0.5,0.6,0.6,0.9C143.2,377.8,143.2,378.6,143,379.4z M217.1,383.5h8.3v-2.4h-5.9v-2.4h4.8v-1.2h-4.7v-2.4h5.9v-2.4h-8.3
	v10.8H217.1z M169.7,373.5c-0.9-0.5-2-0.7-3-0.7h-5.4v10.7h5.4c1,0,2.1-0.2,3-0.7c0.8-0.4,1.6-1.1,2.1-1.9c1-1.7,1-3.9,0-5.6
	C171.2,374.6,170.5,373.9,169.7,373.5z M169.1,379.8c-0.2,0.4-0.6,0.8-1,1c-0.5,0.2-1,0.4-1.6,0.3h-1.7v-6h1.7
	c0.5,0,1.1,0.2,1.6,0.4c0.4,0.3,0.8,0.6,1,1.1c0.3,0.5,0.4,1,0.4,1.6C169.5,378.7,169.4,379.3,169.1,379.8z M284.4,373.5
	c-0.9-0.5-2-0.7-3-0.7h-4.9v10.7h4.9c1,0,2.1-0.2,3-0.7c0.8-0.4,1.6-1.1,2-1.9c1-1.7,1-3.9,0-5.6
	C285.9,374.6,285.2,373.9,284.4,373.5z M283.8,379.8c-0.2,0.4-0.6,0.8-1,1c-0.5,0.2-1,0.4-1.6,0.3h-2.4v-6h2.4
	c0.5,0,1.1,0.2,1.6,0.4c0.4,0.3,0.8,0.6,1,1.1c0.3,0.5,0.4,1,0.4,1.6C284.2,378.7,284.1,379.3,283.8,379.8z M303,374.3
	c-0.5-0.5-1.1-0.9-1.8-1.1c-1.5-0.5-3.1-0.5-4.6,0c-0.7,0.3-1.3,0.6-1.8,1.1s-0.9,1.1-1.2,1.7c-0.3,0.7-0.4,1.4-0.4,2.2
	c0,1.5,0.6,2.9,1.6,3.9c0.5,0.5,1.2,0.9,1.8,1.1c0.7,0.3,1.5,0.4,2.3,0.4s1.6-0.1,2.3-0.4c0.7-0.3,1.3-0.6,1.8-1.1s0.9-1.1,1.2-1.7
	c0.6-1.4,0.6-3,0-4.4C303.9,375.4,303.5,374.8,303,374.3z M301.5,379.4c-0.1,0.4-0.3,0.7-0.6,1c-0.3,0.3-0.6,0.5-0.9,0.6
	c-0.4,0.1-0.8,0.2-1.2,0.2c-0.4,0-0.7-0.1-1.1-0.2c-0.3-0.1-0.6-0.3-0.9-0.6c-0.3-0.3-0.5-0.6-0.6-1c-0.3-0.8-0.3-1.7,0-2.5
	c0.1-0.4,0.3-0.7,0.6-0.9c0.2-0.3,0.6-0.5,0.9-0.6c0.7-0.3,1.5-0.3,2.2,0c0.3,0.1,0.6,0.3,0.9,0.6c0.3,0.3,0.5,0.6,0.6,0.9
	C301.8,377.8,301.8,378.6,301.5,379.4z M326.3,356.1c-3.9-10-8.3-21.8-13-35.2c-1.3-3.8-2.2-6.4-2.5-7.6c-4.4,0-9.5,0.2-15.3,0.7
	l-1.9,6.9c-5.2,14.5-9.6,26.2-13.2,35.1l-5.3,2.1l0.9,4.1h20.3l1-4.1l-6.7-2c1.5-5,2.2-7.7,2.3-8l17.2-0.4c1.1,3.2,2,6,2.8,8.5
	l-6.5,2l0.9,4.1h23.5l0.9-4.1L326.3,356.1z M294.9,341.2L294.9,341.2c2.3-7.8,4.3-14.4,6.1-19.6c2.2,6.1,4.6,12.8,7,19.9
	L294.9,341.2z M263.2,372.8l-4.6,10.7h3l0.9-2.4h4.2l0.9,2.4h3.1l-4.6-10.7H263.2z M263.4,378.7l1.2-3.2l1.2,3.2H263.4z
	 M245.6,375.1h2.4v8.3h3.5v-8.3h2.4v-2.4h-8.3L245.6,375.1L245.6,375.1z M238.9,378c-0.4-0.2-0.8-0.4-1.2-0.5s-0.8-0.2-1.3-0.3
	c-0.4-0.1-0.8-0.2-1.2-0.3c-0.3-0.1-0.6-0.2-0.9-0.3c-0.2-0.1-0.3-0.3-0.3-0.5s0.1-0.3,0.2-0.5c0.1-0.2,0.3-0.3,0.5-0.3
	c0.3-0.1,0.7-0.1,1-0.1c0.5,0,1,0.1,1.4,0.2c0.5,0.1,1,0.4,1.5,0.6l0.9-2.2c-0.6-0.3-1.1-0.5-1.8-0.7s-1.3-0.2-2-0.2
	c-0.9,0-1.8,0.1-2.6,0.5c-0.6,0.3-1.2,0.7-1.5,1.2s-0.5,1.1-0.5,1.7c0,0.5,0.1,1,0.3,1.4s0.5,0.7,0.9,0.9c0.4,0.2,0.8,0.4,1.2,0.5
	s0.8,0.3,1.3,0.3c0.4,0.1,0.8,0.2,1.2,0.3c0.3,0.1,0.6,0.2,0.9,0.3c0.2,0.1,0.3,0.3,0.3,0.6c0,0.2-0.1,0.3-0.2,0.4
	c-0.2,0.1-0.3,0.3-0.5,0.3c-0.3,0.1-0.7,0.1-1,0.1c-0.6,0-1.2-0.1-1.8-0.3c-0.6-0.2-1.1-0.4-1.6-0.7l-1,2.2c0.6,0.4,1.2,0.7,1.9,0.8
	c0.8,0.2,1.6,0.3,2.5,0.3s1.8-0.1,2.6-0.5c0.6-0.3,1.1-0.7,1.5-1.2c0.3-0.5,0.5-1.1,0.5-1.7c0-0.5-0.1-1-0.3-1.4
	C239.5,378.5,239.2,378.2,238.9,378z M164,358.2c-2.1-0.9-4-1.7-5.8-2.6c-3-3.3-7.5-9.1-13.4-17.3c5.8-8,10.3-13.8,13.6-17.6l5-2.2
	l-0.9-4h-21l-0.9,4c1.3,0.6,3.5,1.2,6.3,2.5l-6.3,11.3c-4.3-6-8.2-12.2-11.8-18.5c-5.9,0.2-11.4,0.3-16.5,0.3l-0.9,4.2
	c2,0.7,3.9,1.6,5.8,2.6c2.5,2.7,6.8,8.3,13,16.9c-5.8,8-10.5,14-14.1,18.1l-5,2.3l0.9,4.1h21l0.9-4.1c-1.3-0.5-3.4-1.3-6.3-2.5
	c2-3.6,4.2-7.6,6.8-12c4.5,6.2,8.6,12.5,12.4,19.2c5.8-0.2,11.2-0.3,16.4-0.2L164,358.2z M43.5,319.4c-4.4-4.4-10.1-6.5-17.2-6.5
	c-7.8,0-14.2,2.5-19,7.4S0,331.6,0,339.6c0,7.3,2.3,13.1,6.7,17.4s10.3,6.4,17.7,6.4c7.5,0,13.7-2.5,18.4-7.4
	c4.8-4.9,7.2-11.2,7.2-19C50,329.6,47.9,323.8,43.5,319.4z M36.2,347.5c-0.5,2-1.3,4-2.5,5.7c-1.9,1.7-4.7,2.5-8.5,2.5
	c-4.1,0-7.3-1.4-9.4-4.4s-3.2-7.2-3.2-12.7c0-6.9,1.2-12.1,3.6-15.6c2.5-1.8,5.4-2.7,8.5-2.5c4.5,0,7.8,1.5,9.7,4.6
	c1.9,3,2.9,7.6,2.9,13.7C37.4,341.7,37,344.7,36.2,347.5z M30.8,376c0.3-0.3,0.6-0.5,0.9-0.6c0.4-0.1,0.8-0.2,1.2-0.2
	c0.5,0,0.9,0.1,1.4,0.3c0.4,0.2,0.8,0.5,1.2,0.9l1.9-1.7c-0.5-0.6-1.2-1.1-1.9-1.4c-0.8-0.3-1.7-0.5-2.6-0.5c-0.8,0-1.6,0.1-2.3,0.4
	c-0.7,0.2-1.3,0.6-1.8,1.1s-0.9,1.1-1.2,1.7c-0.3,0.7-0.4,1.4-0.4,2.2c0,0.7,0.1,1.5,0.4,2.2s0.7,1.2,1.2,1.7s1.1,0.9,1.8,1.1
	c0.7,0.3,1.5,0.4,2.3,0.4s1.6-0.1,2.4-0.3c0.7-0.2,1.4-0.6,2.1-1l-0.5-0.6v-4.2h-2.4v3.4l0,0c-0.4,0.1-0.9,0.2-1.3,0.2
	c-0.4,0-0.8-0.1-1.2-0.2c-0.3-0.1-0.7-0.4-0.9-0.6c-0.3-0.3-0.5-0.6-0.6-1s-0.2-0.8-0.2-1.2c0-0.4,0.1-0.8,0.2-1.2
	C30.3,376.6,30.5,376.3,30.8,376z M53.2,374.3c-0.5-0.5-1.2-0.9-1.8-1.1c-1.5-0.5-3.1-0.5-4.6,0c-0.7,0.3-1.3,0.6-1.8,1.1
	c-1.7,1.6-2.1,4-1.2,6.1c0.3,0.7,0.7,1.2,1.2,1.7s1.2,0.9,1.8,1.1c0.7,0.3,1.5,0.4,2.3,0.4s1.6-0.1,2.3-0.4s1.3-0.6,1.8-1.1
	s0.9-1.1,1.2-1.7c0.6-1.4,0.6-3,0-4.4C54.2,375.4,53.7,374.8,53.2,374.3z M51.7,379.4c-0.1,0.4-0.3,0.7-0.6,1s-0.6,0.5-0.9,0.6
	c-0.4,0.1-0.7,0.2-1.1,0.2c-0.4,0-0.7-0.1-1.1-0.2c-0.3-0.1-0.7-0.4-0.9-0.6c-0.3-0.3-0.5-0.6-0.6-1c-0.3-0.8-0.3-1.7,0-2.5
	c0.1-0.4,0.3-0.7,0.6-0.9c0.2-0.3,0.6-0.5,0.9-0.6c0.4-0.1,0.7-0.2,1.1-0.2c0.4,0,0.8,0.1,1.1,0.2s0.6,0.3,0.9,0.6
	c0.3,0.3,0.5,0.6,0.6,0.9C52,377.8,52,378.6,51.7,379.4z M69.4,378c-0.1,0-0.2,0-0.2-0.1c0.4-0.2,0.8-0.5,1-0.9
	c0.3-0.4,0.4-0.9,0.4-1.4c0-0.8-0.4-1.5-1-2c-0.9-0.6-2-0.9-3.1-0.8h-5v10.7h5.3c1.1,0.1,2.2-0.2,3.2-0.8c0.7-0.5,1.1-1.3,1.1-2.1
	c0-0.6-0.1-1.1-0.5-1.6C70.4,378.6,69.9,378.2,69.4,378z M64,375.1h2.3c0.4,0,0.8,0.1,1.1,0.3c0.2,0.2,0.4,0.5,0.4,0.8
	s-0.1,0.7-0.4,0.9c-0.3,0.3-0.7,0.4-1.1,0.5H64V375.1z M67.9,380.9c-0.4,0.2-0.8,0.2-1.2,0.2H64v-2.4h2.7c0.4,0,0.8,0.2,1.2,0.5
	c0.3,0.3,0.4,0.6,0.4,1C68.3,380.5,68.1,380.8,67.9,380.9z M105.5,283.6h15.2v-23.3c0-0.8-0.7-1.5-1.5-1.5h-10.9
	c-33.9-0.1-61.3-27.5-61.4-61.4v-0.1h9.3c1.5,0,2.7,1,3,2.5c1.9,26.4,23.9,46.8,50.3,46.9h11.2v-9.4c0-8-6.1-14.6-14-15.4
	c-0.4,0-0.8,0-1.1-0.1h-0.4c-0.3,0-0.5,0-0.8-0.1c-10.7-1.4-19-9.9-20.4-20.5c0-0.2-0.1-0.4-0.1-0.5c0-0.5-0.1-1.1-0.1-1.7
	c-0.8-8.1-7.5-14-15.4-14H22v15.1C22.1,246.1,59.4,283.5,105.5,283.6z M125.7,379l-5-6.3h-2.1v10.7h2.4v-5.9l4.7,5.9h2.3v-10.7h-2.4
	L125.7,379L125.7,379z M40,110.9H22v61.8h18l12.4-15.5L40,141.7l12.4-15.5L40,110.9z M94.8,378.7v-1.2H90v1.2H94.8z M77,383.5h3.6
	v-10.7H77V383.5z M111.2,378.9c0.4-0.6,0.6-1.3,0.6-2.1c0-0.7-0.2-1.5-0.6-2.1s-0.9-1.1-1.6-1.4c-0.8-0.4-1.6-0.5-2.5-0.5H102v10.7
	h3.5v-2.4h1.6l1.7,2.4h3.2l-2.3-3.1C110.4,380,110.9,379.5,111.2,378.9z M108.4,378.1c-0.4,0.4-0.9,0.6-1.4,0.6h-1.5v-3.6h1.5
	c0.5,0,1,0.2,1.4,0.5c0.3,0.3,0.5,0.8,0.5,1.3S108.7,377.8,108.4,378.1z M107.5,358l-5.4-1.9c-3.9-10-8.3-21.8-13-35.2
	c-1.3-3.8-2.2-6.4-2.5-7.6c-4.4,0-9.5,0.2-15.3,0.7l-1.9,6.9c-5.1,14.5-9.6,26.2-13.2,35.1l-5.3,2.1l0.9,4.1H72l1-4.1l-6.7-2
	c1.5-5,2.2-7.7,2.3-8l17.2-0.4c1,3.2,2,6,2.8,8.5l-6.5,2l0.9,4.1h23.5L107.5,358z M70.7,341.2L70.7,341.2c2.3-7.8,4.3-14.4,6.1-19.6
	c2.2,6.1,4.6,12.8,7,19.9L70.7,341.2z M87.7,383.5H96v-2.4h-5.9v-6H96v-2.4h-8.3V383.5z"/>
</svg>
