<?xml version="1.0" encoding="UTF-8"?>
<svg id="Capa_2" data-name="Capa 2" xmlns="http://www.w3.org/2000/svg" viewBox="0 0 371.29 374.55">
  <defs>
    <style>
      .cls-1 {
        fill: #9f3f8e;
      }

      .cls-2 {
        fill: #fe851c;
      }

      .cls-3 {
        fill: #fff;
      }

      .cls-4 {
        fill: #5276ba;
      }

      .cls-5 {
        fill: #00b023;
      }

      .cls-6 {
        fill: #ff4c64;
      }

      .cls-7 {
        fill: #fec152;
      }

      .cls-8 {
        fill: #0797d4;
      }

      .cls-9 {
        fill: #9d2648;
      }

      .cls-10 {
        fill: #00afa5;
      }
    </style>
  </defs>
  <g id="Layer_1" data-name="Layer 1">
    <rect class="cls-3" x="0" width="371.29" height="374.55" rx="111.53" ry="111.53"/>
    <g>
      <path class="cls-6" d="M43.79,117.05c0-40.42,32.77-73.19,73.19-73.19h.53V12.24h-3.84C58.07,12.24,13,57.31,13,112.9v21.27h30.78v-17.11Z"/>
      <path class="cls-10" d="M254.88,43.87c40.42,0,73.19,32.77,73.19,73.19v2.06h30.22v-6.22c0-55.59-45.07-100.66-100.66-100.66h-19.74v31.63h16.99Z"/>
      <path class="cls-5" d="M116.97,331.57c-40.42,0-73.19-32.77-73.19-73.19v-2.14H13v5.41c0,55.59,45.07,100.66,100.66,100.66h18.85v-30.74h-15.54Z"/>
      <path class="cls-2" d="M113.7,286.19c-13.57,0-24.57-11-24.57-24.57h0c0-11.57-9.38-20.94-20.94-20.94H13v15.57h41.77c2.99,0,5.41,2.42,5.41,5.41h0c0,29.54,23.94,53.48,53.48,53.48h18.85s0-10.14,0-10.14c0-10.39-8.42-18.81-18.81-18.81h0Z"/>
      <path class="cls-8" d="M117.5,12.24v43.33c0,2.12-1.72,3.84-3.84,3.84h0c-29.54,0-53.48,23.94-53.48,53.48v21.27h7.72c11.72,0,21.23-9.5,21.23-21.23h0c0-13.57,11-24.57,24.57-24.57h2.01c9.28,0,16.8-7.52,16.8-16.8V12.24h-15.01Z"/>
      <path class="cls-1" d="M328.07,119.11h-10.74c-3.43,0-6.22-2.78-6.22-6.22h0c0-29.54-23.94-53.48-53.48-53.48h-19.74v8.61c0,11.23,9.1,20.33,20.33,20.33h0c13.57,0,24.57,11,24.57,24.57h0c0,11.72,9.5,21.23,21.23,21.23h54.26v-15.05h-30.22Z"/>
      <path class="cls-4" d="M328.07,240.67v17.71c0,40.42-32.77,73.19-73.19,73.19h-1.36v30.74h4.1c55.59,0,100.66-45.07,100.66-100.66v-20.98h-30.22Z"/>
      <path class="cls-7" d="M282.8,261.62h0c0,13.57-11,24.57-24.57,24.57h0c-11.23,0-20.33,9.1-20.33,20.33v55.79h15.63v-43.07c0-2.27,1.84-4.1,4.1-4.1h0c29.54,0,53.48-23.94,53.48-53.48v-20.98h-7.37c-11.57,0-20.94,9.38-20.94,20.94Z"/>
      <g>
        <rect class="cls-9" x="313.46" y="149.21" width="14.73" height="30.38"/>
        <polygon class="cls-9" points="343.32 149.21 343.32 194.72 298.33 194.72 298.33 149.21 282.8 149.21 282.8 225.1 358.29 225.1 358.29 149.21 343.32 149.21"/>
      </g>
      <g>
        <polygon class="cls-9" points="193.23 179.59 230.62 179.59 208.08 141.65 230.97 103.7 193.23 103.7 193.23 179.59"/>
        <path class="cls-9" d="M255.06,103.7h-24.08l22.49,37.94-22.14,37.94h37.39v-62.23c0-7.54-6.12-13.66-13.66-13.66Z"/>
      </g>
      <g>
        <g>
          <rect class="cls-9" x="103.12" y="134.16" width="75.49" height="15.05"/>
          <path class="cls-9" d="M178.6,118.27v-14.57h-61.83c-7.54,0-13.66,6.12-13.66,13.66v.91h75.49Z"/>
        </g>
        <rect class="cls-9" x="103.12" y="165.11" width="75.49" height="14.49"/>
      </g>
      <g>
        <polygon class="cls-9" points="223.17 194.95 208.68 194.95 208.68 210.25 193.23 210.25 193.23 225.08 223.17 225.08 223.17 194.95"/>
        <polygon class="cls-9" points="268.72 225.08 268.72 210.25 253.02 210.25 253.02 194.95 238.54 194.95 238.54 225.08 268.72 225.08"/>
        <polygon class="cls-9" points="238.54 240.47 238.54 270.83 253.02 270.83 253.02 255.3 268.72 255.3 268.72 240.47 238.54 240.47"/>
        <polygon class="cls-9" points="193.23 240.47 193.23 255.3 208.68 255.3 208.68 270.83 223.17 270.83 223.17 240.47 193.23 240.47"/>
        <rect class="cls-9" x="223.17" y="225.08" width="15.37" height="15.37"/>
      </g>
      <g>
        <polygon class="cls-9" points="51.32 206.25 34.9 187.12 51.43 167.86 36.53 149.21 13 149.21 13 225.1 35.27 225.1 51.32 206.25"/>
        <polygon class="cls-9" points="52.02 149.21 67.14 168.14 50.85 187.12 67.25 206.22 51.16 225.1 88.49 225.1 88.49 149.21 52.02 149.21"/>
      </g>
      <g>
        <path class="cls-9" d="M103.12,246.27v10.91c0,7.54,6.12,13.66,13.66,13.66h61.83v-24.57h-75.49Z"/>
        <polygon class="cls-9" points="111.22 219.71 111.22 228.64 119.35 228.64 119.35 237.33 144.78 237.33 144.78 220.35 136.49 220.35 136.49 228.52 127.8 228.52 127.8 212.14 153.56 212.14 153.56 220.11 162.09 220.11 162.09 228.24 170.05 228.24 170.05 237.33 178.6 237.33 178.6 194.95 103.12 194.95 103.12 219.71 111.22 219.71"/>
      </g>
      <g>
        <path class="cls-9" d="M163.73,295.48c2.88,1.59,4.79,2.64,9.33,2.64s6.45-1.05,9.33-2.64c3.51-1.94,7.89-4.35,16.02-4.35s12.5,2.41,16.02,4.35c2.82,1.55,4.72,2.58,9.04,2.63v-11.68h-75.49v4.72c7.95.06,12.27,2.42,15.74,4.34Z"/>
        <path class="cls-9" d="M207.73,306.22c-2.88-1.59-4.78-2.64-9.32-2.64s-6.45,1.05-9.33,2.64c-3.51,1.94-7.89,4.35-16.02,4.35s-12.51-2.41-16.02-4.35c-2.82-1.55-4.72-2.58-9.05-2.63v11.07c7.95.06,12.27,2.42,15.74,4.34,2.88,1.59,4.79,2.64,9.33,2.64s6.45-1.05,9.33-2.64c3.51-1.94,7.89-4.35,16.02-4.35s12.5,2.41,16.02,4.35c2.82,1.55,4.72,2.58,9.04,2.63v-11.07c-7.94-.06-12.27-2.42-15.74-4.34Z"/>
        <path class="cls-9" d="M207.73,353.26c-2.88-1.59-4.78-2.64-9.32-2.64s-6.45,1.05-9.33,2.64c-3.51,1.94-7.89,4.35-16.02,4.35s-12.51-2.41-16.02-4.35c-2.82-1.55-4.72-2.58-9.05-2.63v11.68h75.49v-4.72c-7.94-.06-12.27-2.42-15.74-4.34Z"/>
        <path class="cls-9" d="M198.41,327.1c-4.54,0-6.45,1.05-9.33,2.64-3.51,1.94-7.89,4.35-16.02,4.35s-12.51-2.41-16.02-4.35c-2.82-1.55-4.72-2.58-9.05-2.63v11.07c7.95.06,12.27,2.42,15.74,4.34,2.88,1.59,4.79,2.64,9.33,2.64s6.45-1.05,9.33-2.64c3.51-1.94,7.89-4.35,16.02-4.35s12.5,2.41,16.02,4.35c2.82,1.55,4.72,2.58,9.04,2.63v-11.07c-7.94-.06-12.27-2.42-15.74-4.34-2.88-1.59-4.78-2.64-9.32-2.64Z"/>
      </g>
      <path class="cls-9" d="M185.61,12.48c4.38,0,8.28,2.05,10.8,5.25,1.03,1.31,2.69,2,4.35,1.8,4.04-.48,8.25.82,11.35,3.92,3.1,3.1,4.4,7.31,3.92,11.35-.2,1.66.49,3.32,1.8,4.35,3.19,2.52,5.25,6.41,5.25,10.8s-2.05,8.28-5.25,10.8c-1.31,1.03-2,2.69-1.8,4.35.48,4.04-.82,8.25-3.92,11.35-3.1,3.1-7.31,4.4-11.35,3.92-1.66-.2-3.32.49-4.35,1.8-2.52,3.19-6.41,5.25-10.8,5.25s-8.28-2.05-10.8-5.25c-1.03-1.31-2.69-2-4.35-1.8-4.04.48-8.25-.82-11.35-3.92-3.1-3.1-4.4-7.31-3.92-11.35.2-1.66-.49-3.32-1.8-4.35-3.19-2.52-5.25-6.41-5.25-10.8s2.05-8.28,5.25-10.8c1.31-1.03,2-2.69,1.8-4.35-.48-4.04.82-8.25,3.92-11.35,3.1-3.1,7.31-4.4,11.35-3.92,1.66.2,3.32-.49,4.35-1.8,2.52-3.19,6.41-5.25,10.8-5.25h-37.74v75.89h75.49V12.48h-37.74Z"/>
      <circle class="cls-9" cx="185.61" cy="49.94" r="7.52"/>
    </g>
  </g>
</svg>